<svg xmlns="http://www.w3.org/2000/svg" width="44.643" height="44.643" viewBox="0 0 44.643 44.643">
  <g id="Icon_ionic-ios-add-circle-outline" data-name="Icon ionic-ios-add-circle-outline" transform="translate(-3.375 -3.375)">
    <path id="Path_10" data-name="Path 10" d="M31.653,20.224H23.658V12.229a1.717,1.717,0,0,0-3.434,0v7.995H12.229a1.644,1.644,0,0,0-1.717,1.717,1.662,1.662,0,0,0,1.717,1.717h7.995v7.995a1.663,1.663,0,0,0,1.717,1.717,1.708,1.708,0,0,0,1.717-1.717V23.658h7.995a1.717,1.717,0,1,0,0-3.434Z" transform="translate(3.756 3.756)" fill="#bc0336"/>
    <path id="Path_11" data-name="Path 11" d="M25.7,6.38a19.309,19.309,0,1,1-13.661,5.655A19.189,19.189,0,0,1,25.7,6.38m0-3A22.321,22.321,0,1,0,48.018,25.7,22.318,22.318,0,0,0,25.7,3.375Z" transform="translate(0 0)" fill="#bc0336"/>
  </g>
</svg>
