<svg xmlns="http://www.w3.org/2000/svg" xmlns:xlink="http://www.w3.org/1999/xlink" width="32.092" height="30.204" viewBox="0 0 32.092 30.204">
  <defs>
    <radialGradient id="radial-gradient" cx="0.5" cy="0.5" r="0.5" gradientUnits="objectBoundingBox">
      <stop offset="0" stop-color="#f5f5f5"/>
      <stop offset="1" stop-color="#bbb"/>
    </radialGradient>
  </defs>
  <path id="Icon_awesome-chart-pie" data-name="Icon awesome-chart-pie" d="M31.136,16.99h-14l9.323,9.323a.947.947,0,0,0,1.309.04,14.129,14.129,0,0,0,4.314-8.31.946.946,0,0,0-.947-1.053ZM30.2,13.167A14.192,14.192,0,0,0,17.037,0a.949.949,0,0,0-.991.956v13.2h13.2a.949.949,0,0,0,.955-.991ZM13.214,16.99v-14a.945.945,0,0,0-1.052-.947A14.148,14.148,0,0,0,.008,16.54,14.333,14.333,0,0,0,14.337,30.2a14.048,14.048,0,0,0,7.979-2.6.937.937,0,0,0,.093-1.421Z" transform="translate(0 0)" fill="url(#radial-gradient)"/>
</svg>
